<svg width="149" height="20" viewBox="0 0 149 20" fill="none" xmlns="http://www.w3.org/2000/svg">
<path d="M1.76853 19.9453C1.21475 19.9453 0.777083 19.7902 0.455531 19.4802C0.151844 19.1518 0 18.6867 0 18.0848V2.29822C0 1.69631 0.151844 1.24031 0.455531 0.930232C0.777083 0.601915 1.23261 0.437756 1.82213 0.437756H11.1739C11.6384 0.437756 11.9867 0.556315 12.219 0.793433C12.4512 1.03055 12.5673 1.36799 12.5673 1.80575C12.5673 2.26174 12.4512 2.61742 12.219 2.87278C11.9867 3.10989 11.6384 3.22845 11.1739 3.22845H3.42988V8.67305H10.6112C11.0578 8.67305 11.3972 8.79161 11.6294 9.02873C11.8795 9.26585 12.0046 9.60328 12.0046 10.041C12.0046 10.497 11.8795 10.8527 11.6294 11.1081C11.3972 11.3452 11.0578 11.4637 10.6112 11.4637H3.42988V18.0848C3.42988 19.3251 2.8761 19.9453 1.76853 19.9453Z" fill="white"/>
<path d="M17.4592 19.9179C16.9233 19.9179 16.5125 19.7538 16.2266 19.4254C15.9408 19.0971 15.7979 18.6411 15.7979 18.0575V8.01642C15.7979 7.4145 15.9408 6.9585 16.2266 6.64843C16.5125 6.32011 16.9233 6.15595 17.4592 6.15595C17.9952 6.15595 18.406 6.32011 18.6919 6.64843C18.9955 6.9585 19.1474 7.4145 19.1474 8.01642V18.0575C19.1474 18.6411 19.0045 19.0971 18.7187 19.4254C18.4328 19.7538 18.013 19.9179 17.4592 19.9179ZM17.4592 3.61149C16.834 3.61149 16.3427 3.45645 15.9855 3.14638C15.6461 2.81806 15.4763 2.37118 15.4763 1.80575C15.4763 1.22207 15.6461 0.775193 15.9855 0.465115C16.3427 0.155038 16.834 0 17.4592 0C18.1023 0 18.5936 0.155038 18.933 0.465115C19.2724 0.775193 19.4421 1.22207 19.4421 1.80575C19.4421 2.37118 19.2724 2.81806 18.933 3.14638C18.5936 3.45645 18.1023 3.61149 17.4592 3.61149Z" fill="white"/>
<path d="M24.2891 19.9453C23.7532 19.9453 23.3423 19.7994 23.0565 19.5075C22.7706 19.1974 22.6277 18.7597 22.6277 18.1943V7.85226C22.6277 7.28682 22.7706 6.85818 23.0565 6.56635C23.3423 6.27451 23.7442 6.12859 24.2623 6.12859C24.7803 6.12859 25.1823 6.27451 25.4681 6.56635C25.7539 6.85818 25.8968 7.28682 25.8968 7.85226V9.71272L25.6021 9.02873C25.9951 8.06201 26.6025 7.33242 27.4242 6.83995C28.2638 6.32923 29.2106 6.07387 30.2646 6.07387C31.3185 6.07387 32.185 6.27451 32.8638 6.67579C33.5426 7.07706 34.0517 7.6881 34.3912 8.50889C34.7306 9.31145 34.9003 10.3329 34.9003 11.5732V18.1943C34.9003 18.7597 34.7574 19.1974 34.4715 19.5075C34.1857 19.7994 33.7748 19.9453 33.2389 19.9453C32.703 19.9453 32.2832 19.7994 31.9795 19.5075C31.6937 19.1974 31.5508 18.7597 31.5508 18.1943V11.7373C31.5508 10.6977 31.3543 9.94072 30.9613 9.46648C30.5861 8.99225 29.9966 8.75513 29.1927 8.75513C28.2102 8.75513 27.4242 9.07433 26.8347 9.71272C26.263 10.3329 25.9772 11.1628 25.9772 12.2025V18.1943C25.9772 19.3616 25.4145 19.9453 24.2891 19.9453Z" fill="white"/>
<path d="M43.34 20C42.1967 20 41.1873 19.7173 40.312 19.1518C39.4545 18.5864 38.7846 17.7839 38.3023 16.7442C37.82 15.6863 37.5788 14.446 37.5788 13.0233C37.5788 11.5823 37.82 10.3511 38.3023 9.32969C38.7846 8.29001 39.4545 7.48746 40.312 6.92202C41.1873 6.35659 42.1967 6.07387 43.34 6.07387C44.4297 6.07387 45.3765 6.34747 46.1803 6.89467C47.0021 7.44186 47.5559 8.16233 47.8417 9.05609H47.5469V1.94254C47.5469 1.37711 47.6898 0.948472 47.9757 0.656634C48.2615 0.364796 48.6724 0.218877 49.2083 0.218877C49.7442 0.218877 50.1551 0.364796 50.4409 0.656634C50.7446 0.948472 50.8964 1.37711 50.8964 1.94254V18.1943C50.8964 18.7597 50.7535 19.1974 50.4677 19.5075C50.1819 19.7994 49.771 19.9453 49.2351 19.9453C48.6991 19.9453 48.2883 19.7994 48.0025 19.5075C47.7166 19.1974 47.5737 18.7597 47.5737 18.1943V16.0602L47.8685 16.881C47.6005 17.8295 47.0557 18.5864 46.2339 19.1518C45.4122 19.7173 44.4475 20 43.34 20ZM44.2778 17.4008C44.9388 17.4008 45.5194 17.2367 46.0196 16.9083C46.5197 16.58 46.9038 16.0967 47.1718 15.4583C47.4576 14.8016 47.6005 13.99 47.6005 13.0233C47.6005 11.5641 47.2968 10.4788 46.6895 9.76744C46.0821 9.03785 45.2782 8.67305 44.2778 8.67305C43.6168 8.67305 43.0363 8.83721 42.5361 9.16553C42.0359 9.4756 41.6429 9.95896 41.3571 10.6156C41.0891 11.254 40.9551 12.0565 40.9551 13.0233C40.9551 14.4642 41.2588 15.5586 41.8662 16.3064C42.4736 17.036 43.2774 17.4008 44.2778 17.4008Z" fill="white"/>
<path d="M54.7178 19.9179C54.3605 19.9179 54.0747 19.8358 53.8603 19.6717C53.6459 19.5075 53.5209 19.2886 53.4852 19.015C53.4494 18.7415 53.503 18.4314 53.6459 18.0848L60.9076 1.45007C61.0863 1.01231 61.3096 0.702234 61.5775 0.519836C61.8634 0.337437 62.176 0.246238 62.5154 0.246238C62.837 0.246238 63.1317 0.337437 63.3997 0.519836C63.6855 0.702234 63.9177 1.01231 64.0964 1.45007L71.3581 18.0848C71.5188 18.4314 71.5814 18.7506 71.5456 19.0424C71.5099 19.316 71.3938 19.5349 71.1973 19.699C71.0008 19.845 70.7239 19.9179 70.3666 19.9179C69.9736 19.9179 69.661 19.8176 69.4288 19.617C69.1965 19.4163 68.9911 19.1062 68.8125 18.6867L66.9367 14.2544L68.1961 15.0205H56.7811L58.0137 14.2544L56.1648 18.6867C55.9861 19.1245 55.7896 19.4437 55.5752 19.6443C55.3609 19.8267 55.0751 19.9179 54.7178 19.9179ZM62.4618 3.58413L58.4156 13.3789L57.7457 12.7223H67.2047L66.5884 13.3789L62.5154 3.58413H62.4618Z" fill="white"/>
<path d="M76.1901 19.9453C75.6363 19.9453 75.1987 19.7902 74.8771 19.4802C74.5734 19.1518 74.4216 18.6867 74.4216 18.0848V2.29822C74.4216 1.69631 74.5734 1.24031 74.8771 0.930232C75.1987 0.601915 75.6542 0.437756 76.2437 0.437756H85.5955C86.06 0.437756 86.4083 0.556315 86.6406 0.793433C86.8728 1.03055 86.9889 1.36799 86.9889 1.80575C86.9889 2.26174 86.8728 2.61742 86.6406 2.87278C86.4083 3.10989 86.06 3.22845 85.5955 3.22845H77.8515V8.67305H85.0328C85.4794 8.67305 85.8188 8.79161 86.051 9.02873C86.3011 9.26585 86.4262 9.60328 86.4262 10.041C86.4262 10.497 86.3011 10.8527 86.051 11.1081C85.8188 11.3452 85.4794 11.4637 85.0328 11.4637H77.8515V18.0848C77.8515 19.3251 77.2977 19.9453 76.1901 19.9453Z" fill="white"/>
<path d="M90.5999 19.9453C90.0461 19.9453 89.6174 19.7994 89.3137 19.5075C89.0278 19.1974 88.8849 18.7597 88.8849 18.1943V7.85226C88.8849 7.28682 89.0278 6.85818 89.3137 6.56635C89.5995 6.27451 90.0014 6.12859 90.5195 6.12859C91.0375 6.12859 91.4395 6.27451 91.7253 6.56635C92.0111 6.85818 92.154 7.28682 92.154 7.85226V9.57592H91.8861C92.1362 8.48153 92.6274 7.65162 93.3599 7.08618C94.0923 6.52075 95.0659 6.18331 96.2806 6.07387C96.6558 6.03739 96.9505 6.13771 97.1649 6.37483C97.3971 6.59371 97.5311 6.94026 97.5668 7.4145C97.6026 7.8705 97.4954 8.24441 97.2453 8.53625C97.013 8.80985 96.6558 8.97401 96.1734 9.02873L95.5839 9.08345C94.4942 9.19289 93.6725 9.53944 93.1187 10.1231C92.5649 10.6886 92.288 11.4911 92.288 12.5308V18.1943C92.288 18.7597 92.1451 19.1974 91.8593 19.5075C91.5735 19.7994 91.1537 19.9453 90.5999 19.9453Z" fill="white"/>
<path d="M101.04 19.9179C100.504 19.9179 100.093 19.7538 99.807 19.4254C99.5212 19.0971 99.3783 18.6411 99.3783 18.0575V8.01642C99.3783 7.4145 99.5212 6.9585 99.807 6.64843C100.093 6.32011 100.504 6.15595 101.04 6.15595C101.576 6.15595 101.986 6.32011 102.272 6.64843C102.576 6.9585 102.728 7.4145 102.728 8.01642V18.0575C102.728 18.6411 102.585 19.0971 102.299 19.4254C102.013 19.7538 101.593 19.9179 101.04 19.9179ZM101.04 3.61149C100.414 3.61149 99.9231 3.45645 99.5658 3.14638C99.2264 2.81806 99.0567 2.37118 99.0567 1.80575C99.0567 1.22207 99.2264 0.775193 99.5658 0.465115C99.9231 0.155038 100.414 0 101.04 0C101.683 0 102.174 0.155038 102.513 0.465115C102.853 0.775193 103.023 1.22207 103.023 1.80575C103.023 2.37118 102.853 2.81806 102.513 3.14638C102.174 3.45645 101.683 3.61149 101.04 3.61149Z" fill="white"/>
<path d="M112.666 20C111.183 20 109.906 19.7173 108.834 19.1518C107.762 18.5864 106.932 17.7839 106.342 16.7442C105.77 15.7045 105.485 14.4733 105.485 13.0506C105.485 11.6644 105.761 10.4514 106.315 9.41176C106.887 8.37209 107.664 7.56042 108.647 6.97674C109.647 6.37483 110.781 6.07387 112.05 6.07387C112.979 6.07387 113.809 6.22891 114.542 6.53899C115.292 6.84906 115.926 7.29594 116.444 7.87962C116.98 8.46329 117.382 9.17465 117.65 10.0137C117.936 10.8345 118.079 11.7647 118.079 12.8044C118.079 13.1327 117.963 13.3881 117.73 13.5705C117.516 13.7346 117.203 13.8167 116.793 13.8167H108.191V11.8468H115.721L115.292 12.2572C115.292 11.4181 115.167 10.7159 114.917 10.1505C114.685 9.58504 114.336 9.15641 113.872 8.86457C113.425 8.55449 112.862 8.39945 112.184 8.39945C111.433 8.39945 110.79 8.58185 110.254 8.94665C109.736 9.29321 109.334 9.7948 109.048 10.4514C108.781 11.0898 108.647 11.8559 108.647 12.7497V12.9412C108.647 14.4368 108.986 15.5586 109.665 16.3064C110.361 17.036 111.38 17.4008 112.72 17.4008C113.184 17.4008 113.702 17.3461 114.274 17.2367C114.863 17.109 115.417 16.8992 115.935 16.6074C116.31 16.3885 116.641 16.2973 116.926 16.3338C117.212 16.352 117.436 16.4523 117.596 16.6347C117.775 16.8171 117.882 17.0451 117.918 17.3187C117.954 17.5741 117.9 17.8386 117.757 18.1122C117.632 18.3858 117.409 18.6229 117.087 18.8235C116.462 19.2248 115.739 19.5258 114.917 19.7264C114.113 19.9088 113.363 20 112.666 20Z" fill="white"/>
<path d="M122.393 19.9453C121.857 19.9453 121.446 19.7994 121.16 19.5075C120.874 19.1974 120.731 18.7597 120.731 18.1943V7.85226C120.731 7.28682 120.874 6.85818 121.16 6.56635C121.446 6.27451 121.848 6.12859 122.366 6.12859C122.884 6.12859 123.286 6.27451 123.572 6.56635C123.858 6.85818 124 7.28682 124 7.85226V9.71272L123.706 9.02873C124.099 8.06201 124.706 7.33242 125.528 6.83995C126.367 6.32923 127.314 6.07387 128.368 6.07387C129.422 6.07387 130.289 6.27451 130.967 6.67579C131.646 7.07706 132.155 7.6881 132.495 8.50889C132.834 9.31145 133.004 10.3329 133.004 11.5732V18.1943C133.004 18.7597 132.861 19.1974 132.575 19.5075C132.289 19.7994 131.878 19.9453 131.343 19.9453C130.807 19.9453 130.387 19.7994 130.083 19.5075C129.797 19.1974 129.654 18.7597 129.654 18.1943V11.7373C129.654 10.6977 129.458 9.94072 129.065 9.46648C128.69 8.99225 128.1 8.75513 127.296 8.75513C126.314 8.75513 125.528 9.07433 124.938 9.71272C124.367 10.3329 124.081 11.1628 124.081 12.2025V18.1943C124.081 19.3616 123.518 19.9453 122.393 19.9453Z" fill="white"/>
<path d="M141.444 20C140.3 20 139.291 19.7173 138.416 19.1518C137.558 18.5864 136.888 17.7839 136.406 16.7442C135.924 15.6863 135.682 14.446 135.682 13.0233C135.682 11.5823 135.924 10.3511 136.406 9.32969C136.888 8.29001 137.558 7.48746 138.416 6.92202C139.291 6.35659 140.3 6.07387 141.444 6.07387C142.533 6.07387 143.48 6.34747 144.284 6.89467C145.106 7.44186 145.659 8.16233 145.945 9.05609H145.651V1.94254C145.651 1.37711 145.793 0.948472 146.079 0.656634C146.365 0.364796 146.776 0.218877 147.312 0.218877C147.848 0.218877 148.259 0.364796 148.544 0.656634C148.848 0.948472 149 1.37711 149 1.94254V18.1943C149 18.7597 148.857 19.1974 148.571 19.5075C148.285 19.7994 147.875 19.9453 147.339 19.9453C146.803 19.9453 146.392 19.7994 146.106 19.5075C145.82 19.1974 145.677 18.7597 145.677 18.1943V16.0602L145.972 16.881C145.704 17.8295 145.159 18.5864 144.338 19.1518C143.516 19.7173 142.551 20 141.444 20ZM142.381 17.4008C143.042 17.4008 143.623 17.2367 144.123 16.9083C144.623 16.58 145.007 16.0967 145.275 15.4583C145.561 14.8016 145.704 13.99 145.704 13.0233C145.704 11.5641 145.4 10.4788 144.793 9.76744C144.186 9.03785 143.382 8.67305 142.381 8.67305C141.72 8.67305 141.14 8.83721 140.64 9.16553C140.139 9.4756 139.746 9.95896 139.461 10.6156C139.193 11.254 139.059 12.0565 139.059 13.0233C139.059 14.4642 139.362 15.5586 139.97 16.3064C140.577 17.036 141.381 17.4008 142.381 17.4008Z" fill="white"/>
</svg>
